<svg width="17" height="17" viewBox="0 0 17 17" fill="none" xmlns="http://www.w3.org/2000/svg">
<path d="M13.7357 11.5696V6.95052C13.7357 4.43636 13.7357 3.17929 12.9546 2.39823C12.1736 1.61719 10.9165 1.61719 8.40234 1.61719H7.73568C5.22152 1.61719 3.96444 1.61719 3.18339 2.39823C2.40234 3.17929 2.40234 4.43636 2.40234 6.95052V13.2839" stroke="#333333" stroke-linecap="round"/>
<path d="M13.7357 11.6152H4.06901C3.14854 11.6152 2.40234 12.3614 2.40234 13.2819C2.40234 14.2024 3.14854 14.9486 4.06901 14.9486H13.7357" stroke="#333333" stroke-linecap="round"/>
<path d="M13.7292 14.9486C12.8087 14.9486 12.0625 14.2024 12.0625 13.2819C12.0625 12.3614 12.8087 11.6152 13.7292 11.6152" stroke="#333333" stroke-linecap="round"/>
<path d="M10.0625 4.95312H6.0625" stroke="#333333" stroke-linecap="round" stroke-linejoin="round"/>
<path d="M8.0625 7.61523H6.0625" stroke="#333333" stroke-linecap="round" stroke-linejoin="round"/>
</svg>
