<svg width="23" height="26" viewBox="0 0 23 26" fill="none" xmlns="http://www.w3.org/2000/svg">
<path d="M5.21733 0.591797C2.62376 0.591797 0.519531 2.72371 0.519531 5.35141V21.2168C0.519531 23.8445 2.62376 25.9764 5.21733 25.9764H19.3107H20.8767C21.7428 25.9764 22.4426 25.2674 22.4426 24.3899C22.4426 23.5123 21.7428 22.8033 20.8767 22.8033V19.6303C21.7428 19.6303 22.4426 18.9213 22.4426 18.0437V2.17834C22.4426 1.30078 21.7428 0.591797 20.8767 0.591797H19.3107H5.21733ZM5.21733 19.6303H17.7448V22.8033H5.21733C4.35118 22.8033 3.6514 22.0943 3.6514 21.2168C3.6514 20.3392 4.35118 19.6303 5.21733 19.6303ZM6.78327 7.73122C6.78327 7.29492 7.1356 6.93795 7.56624 6.93795H16.9618C17.3925 6.93795 17.7448 7.29492 17.7448 7.73122C17.7448 8.16752 17.3925 8.52449 16.9618 8.52449H7.56624C7.1356 8.52449 6.78327 8.16752 6.78327 7.73122ZM7.56624 10.111H16.9618C17.3925 10.111 17.7448 10.468 17.7448 10.9043C17.7448 11.3406 17.3925 11.6976 16.9618 11.6976H7.56624C7.1356 11.6976 6.78327 11.3406 6.78327 10.9043C6.78327 10.468 7.1356 10.111 7.56624 10.111Z" fill="#00ADFF"/>
<path d="M6.78327 7.73122C6.78327 7.29492 7.1356 6.93795 7.56624 6.93795H16.9618C17.3925 6.93795 17.7448 7.29492 17.7448 7.73122C17.7448 8.16752 17.3925 8.52449 16.9618 8.52449H7.56624C7.1356 8.52449 6.78327 8.16752 6.78327 7.73122Z" fill="white"/>
<path d="M7.56624 10.111H16.9618C17.3925 10.111 17.7448 10.468 17.7448 10.9043C17.7448 11.3406 17.3925 11.6976 16.9618 11.6976H7.56624C7.1356 11.6976 6.78327 11.3406 6.78327 10.9043C6.78327 10.468 7.1356 10.111 7.56624 10.111Z" fill="white"/>
</svg>
