<svg width="261" height="242" viewBox="0 0 261 242" fill="none" xmlns="http://www.w3.org/2000/svg">
<path d="M48.3655 85.7985C45.5221 86.2458 43.5797 88.9134 44.027 91.7568C44.4743 94.6002 47.1419 96.5426 49.9853 96.0953L171.709 76.9467C174.553 76.4994 176.495 73.8318 176.048 70.9884C175.601 68.1451 172.933 66.2027 170.09 66.65L48.3655 85.7985Z" fill="#FFB700"/>
<path d="M213.781 201.052C216.595 188.967 207.226 176.458 192.855 173.111C178.483 169.764 164.551 176.847 161.737 188.931C158.922 201.016 168.291 213.526 182.663 216.873C197.034 220.22 210.966 213.137 213.781 201.052Z" fill="#4D2F9D"/>
<mask id="mask0_1_2231" style="mask-type:luminance" maskUnits="userSpaceOnUse" x="161" y="172" width="54" height="46">
<path d="M213.775 201.051C216.589 188.966 207.22 176.457 192.849 173.11C178.477 169.763 164.545 176.846 161.731 188.93C158.916 201.015 168.285 213.525 182.657 216.872C197.028 220.219 210.96 213.135 213.775 201.051Z" fill="white"/>
</mask>
<g mask="url(#mask0_1_2231)">
<path d="M197.543 204.026L200.535 191.158L190.742 182.092L177.949 185.894L174.949 198.762L184.75 207.828L197.543 204.026Z" fill="#4D2F9D" stroke="white" stroke-width="0.277457" stroke-miterlimit="10"/>
<path d="M213.512 187.408L216.504 174.54L206.711 165.474L193.918 169.284L190.918 182.152L200.719 191.21L213.512 187.408Z" fill="#4D2F9D" stroke="white" stroke-width="0.277457" stroke-miterlimit="10"/>
<path d="M220.014 209.252L223.014 196.384L213.213 187.326L200.42 191.128L197.428 203.996L207.221 213.062L220.014 209.252Z" fill="#4D2F9D" stroke="white" stroke-width="0.277457" stroke-miterlimit="10"/>
<path d="M204.322 226.027L207.322 213.159L197.521 204.1L184.735 207.902L181.736 220.77L191.529 229.836L204.322 226.027Z" fill="#4D2F9D" stroke="white" stroke-width="0.277457" stroke-miterlimit="10"/>
<path d="M181.735 220.771L184.735 207.903L174.934 198.837L162.141 202.646L159.149 215.514L168.942 224.573L181.735 220.771Z" fill="#4D2F9D" stroke="white" stroke-width="0.277457" stroke-miterlimit="10"/>
<path d="M175.188 198.822L178.18 185.947L168.386 176.888L155.593 180.69L152.594 193.558L162.395 202.624L175.188 198.822Z" fill="#4D2F9D" stroke="white" stroke-width="0.277457" stroke-miterlimit="10"/>
<path d="M190.901 182.144L193.901 169.276L184.1 160.21L171.306 164.02L168.314 176.888L178.108 185.946L190.901 182.144Z" fill="#4D2F9D" stroke="white" stroke-width="0.277457" stroke-miterlimit="10"/>
</g>
<path d="M161.691 225.496C161.48 225.342 161.291 225.16 161.128 224.956C160.528 224.207 161.053 223.292 161.286 222.564C161.549 221.698 161.885 220.855 162.29 220.045C163.139 218.261 164.563 216.814 166.332 215.935C167.438 215.433 168.67 215.278 169.866 215.491C171.062 215.704 172.164 216.274 173.029 217.128C173.82 218.018 174.423 219.058 174.802 220.187C175.181 221.316 175.328 222.51 175.233 223.697C175.233 225.196 175.571 227.656 172.984 228.016C169.391 228.377 165.77 227.69 162.56 226.036C162.258 225.877 161.967 225.697 161.691 225.496Z" fill="#7D50FF"/>
<path d="M208.92 232.815C209.167 232.734 209.402 232.618 209.617 232.47C210.435 231.908 210.202 230.91 210.21 230.146C210.222 229.24 210.159 228.334 210.022 227.438C209.756 225.482 208.843 223.671 207.428 222.294C206.528 221.476 205.401 220.95 204.196 220.786C202.99 220.623 201.764 220.83 200.679 221.379C199.656 221.987 198.766 222.794 198.061 223.752C197.356 224.711 196.851 225.801 196.577 226.959C196.164 228.368 195.077 230.633 197.439 231.773C200.74 233.209 204.386 233.66 207.938 233.07C208.271 233.008 208.599 232.923 208.92 232.815Z" fill="#7D50FF"/>
<path d="M209.247 201.229C211.883 189.911 204.815 178.592 193.461 175.947C182.106 173.303 170.765 180.335 168.129 191.653C165.493 202.971 172.561 214.29 183.916 216.934C195.27 219.578 206.611 212.547 209.247 201.229Z" fill="#B596FF"/>
<path d="M179.298 184.605C179.298 184.605 192.624 194.683 206.032 190.829" stroke="white" stroke-width="1.50727" stroke-miterlimit="10" stroke-linecap="round"/>
<path d="M177.706 191.399C177.706 191.399 191.032 201.478 204.447 197.623" stroke="white" stroke-width="1.50727" stroke-miterlimit="10" stroke-linecap="round"/>
<path d="M176.158 198.223C176.158 198.223 189.491 208.309 202.899 204.447" stroke="white" stroke-width="1.50727" stroke-miterlimit="10" stroke-linecap="round"/>
<path d="M194.785 187.065C194.785 187.065 193.18 202.138 187.849 211.234" stroke="white" stroke-width="1.50727" stroke-miterlimit="10" stroke-linecap="round"/>
<path d="M209.776 117.768L208.201 117.4C199.255 115.32 189.85 116.877 182.052 121.73C174.255 126.583 168.704 134.334 166.62 143.279L164.16 153.74L163.41 156.979C162.779 159.661 162.915 162.466 163.802 165.074C164.689 167.682 166.292 169.989 168.427 171.729C174.284 176.476 183.245 180.683 193.713 183.12C204.182 185.557 214.073 185.737 221.459 184.065C224.143 183.446 226.6 182.085 228.547 180.138C230.495 178.19 231.856 175.733 232.475 173.049L233.225 169.817L235.662 159.356C236.693 154.926 236.842 150.336 236.099 145.848C235.356 141.36 233.736 137.062 231.333 133.2C228.929 129.339 225.788 125.988 222.089 123.34C218.39 120.692 214.206 118.799 209.776 117.768Z" fill="#7D50FF"/>
<path d="M230.756 161.689C230.555 162.735 230.201 163.745 229.706 164.688C228.491 162.146 225.552 160.054 221.765 159.027C220.262 158.62 218.717 158.391 217.161 158.344C215.074 158.264 212.988 158.517 210.982 159.094C209.634 159.485 208.35 160.071 207.172 160.834C206.779 157.814 207.548 154.758 209.324 152.285C210.797 150.166 212.687 148.371 214.88 147.01C217.072 145.649 219.52 144.752 222.072 144.374H222.365C223.296 144.284 224.234 144.428 225.094 144.794C227.457 145.784 229.016 148.326 229.826 150.793C231.036 154.291 231.356 158.036 230.756 161.689Z" fill="white"/>
<path d="M225.462 150.538L223.054 156.852C222.753 157.634 222.317 158.358 221.765 158.989C220.262 158.582 218.716 158.353 217.16 158.307C215.074 158.227 212.988 158.48 210.981 159.056C210.14 158.161 209.546 157.064 209.255 155.87C208.965 154.677 208.989 153.429 209.324 152.248C210.796 150.128 212.687 148.333 214.879 146.973C217.072 145.612 219.52 144.715 222.072 144.336H222.365C223.295 144.246 224.234 144.391 225.094 144.756C225.56 145.639 225.833 146.611 225.896 147.608C225.96 148.604 225.811 149.603 225.462 150.538Z" fill="black"/>
<path d="M224.562 151.67C226.334 151.67 227.771 150.233 227.771 148.461C227.771 146.688 226.334 145.251 224.562 145.251C222.789 145.251 221.352 146.688 221.352 148.461C221.352 150.233 222.789 151.67 224.562 151.67Z" fill="white"/>
<path d="M181.211 127.486C181.211 127.486 184.601 123.055 189.835 125.049" stroke="black" stroke-width="2.00969" stroke-miterlimit="10" stroke-linecap="round"/>
<path d="M228.058 136.732C228.058 136.732 226.67 131.325 221.069 131.108" stroke="black" stroke-width="2.00969" stroke-miterlimit="10" stroke-linecap="round"/>
<path d="M197.341 170.32C196.101 170.079 194.976 169.432 194.144 168.482C193.312 167.532 192.819 166.332 192.744 165.071L192.302 156.979C192.293 156.813 192.322 156.647 192.387 156.493C192.452 156.34 192.552 156.203 192.678 156.094C192.803 155.985 192.952 155.906 193.113 155.863C193.274 155.82 193.443 155.815 193.607 155.847L206.197 158.277C206.357 158.312 206.508 158.384 206.637 158.486C206.765 158.588 206.87 158.717 206.942 158.865C207.014 159.013 207.052 159.174 207.053 159.339C207.054 159.503 207.017 159.665 206.947 159.814L203.543 167.11C203.013 168.259 202.116 169.198 200.993 169.78C199.87 170.361 198.584 170.551 197.341 170.32Z" fill="#4D2F9D"/>
<mask id="mask1_1_2231" style="mask-type:luminance" maskUnits="userSpaceOnUse" x="192" y="155" width="16" height="16">
<path d="M197.336 170.32C196.096 170.079 194.971 169.432 194.139 168.482C193.307 167.532 192.814 166.331 192.739 165.07L192.297 156.979C192.288 156.813 192.317 156.647 192.382 156.493C192.447 156.34 192.547 156.203 192.672 156.094C192.798 155.985 192.947 155.906 193.108 155.863C193.269 155.82 193.438 155.815 193.602 155.847L206.192 158.276C206.352 158.312 206.503 158.384 206.631 158.486C206.76 158.588 206.865 158.717 206.937 158.865C207.009 159.012 207.047 159.174 207.047 159.339C207.048 159.503 207.012 159.665 206.942 159.814L203.537 167.11C203.008 168.259 202.111 169.198 200.988 169.779C199.864 170.361 198.579 170.551 197.336 170.32Z" fill="white"/>
</mask>
<g mask="url(#mask1_1_2231)">
<path d="M202.003 170.776C202.432 167.746 199.12 164.772 194.605 164.134C190.091 163.495 186.084 165.434 185.656 168.464C185.227 171.494 188.54 174.468 193.054 175.106C197.568 175.744 201.575 173.806 202.003 170.776Z" fill="#FF8DC4"/>
<path d="M212.225 171.122C212.406 168.098 208.105 165.381 202.617 165.051C197.13 164.722 192.534 166.906 192.353 169.929C192.171 172.953 196.473 175.671 201.96 176C207.448 176.329 212.043 174.145 212.225 171.122Z" fill="#FF8DC4"/>
</g>
<path d="M252.975 233.333H7.14794C3.23422 233.333 0.0615234 235.124 0.0615234 237.333C0.0615234 239.542 3.23422 241.333 7.14794 241.333H252.975C256.889 241.333 260.062 239.542 260.062 237.333C260.062 235.124 256.889 233.333 252.975 233.333Z" fill="#DDDDDD"/>
<path d="M210.728 193.139C210.774 192.764 210.756 192.383 210.675 192.014C210.465 191.317 210.042 190.703 209.465 190.259C208.888 189.815 208.186 189.563 207.458 189.539C205.763 189.434 204.249 190.334 202.771 191.039C200.443 192.271 197.895 193.036 195.273 193.289C192.595 193.431 189.941 192.929 187.264 192.846C186.85 192.792 186.429 192.838 186.037 192.982C185.646 193.125 185.294 193.362 185.014 193.671C184.852 193.975 184.757 194.311 184.736 194.655C184.715 195 184.769 195.344 184.894 195.666C185.839 199.37 188.134 203.727 191.718 205.482C193.833 206.517 195.947 206.074 198.01 205.182C200.577 204.045 202.958 202.529 205.074 200.683C207.106 198.95 209.153 196.933 210.323 194.526C210.531 194.088 210.667 193.62 210.728 193.139Z" fill="#7D50FF"/>
<path d="M214.634 150.028H212.684C212.633 150.027 212.582 150.041 212.537 150.067C212.493 150.094 212.456 150.131 212.431 150.177C212.407 150.222 212.395 150.274 212.397 150.325C212.399 150.377 212.416 150.427 212.444 150.47L213.502 152.105C213.532 152.152 213.548 152.207 213.547 152.262V154.212C213.546 154.263 213.559 154.313 213.585 154.357C213.611 154.401 213.648 154.437 213.693 154.461C213.738 154.485 213.789 154.496 213.84 154.493C213.891 154.49 213.94 154.474 213.982 154.445L215.616 153.387C215.664 153.359 215.718 153.343 215.774 153.342H217.724C217.775 153.343 217.826 153.329 217.871 153.303C217.915 153.277 217.952 153.239 217.976 153.193C218.001 153.148 218.013 153.096 218.011 153.045C218.008 152.993 217.992 152.943 217.963 152.9L216.899 151.265C216.869 151.221 216.853 151.168 216.854 151.115V149.158C216.854 149.107 216.841 149.057 216.815 149.013C216.789 148.969 216.752 148.933 216.707 148.909C216.662 148.885 216.611 148.874 216.561 148.877C216.51 148.88 216.461 148.897 216.419 148.925L214.776 149.983C214.734 150.011 214.685 150.026 214.634 150.028Z" fill="white"/>
<path d="M230.63 98.6533L234.027 100.505C234.233 100.617 234.406 100.783 234.526 100.985C234.647 101.187 234.71 101.418 234.71 101.653C234.71 101.888 234.647 102.119 234.526 102.321C234.406 102.522 234.233 102.688 234.027 102.8L230.63 104.66C230.412 104.78 230.233 104.959 230.112 105.177L228.253 108.582C228.139 108.786 227.973 108.957 227.771 109.076C227.569 109.194 227.339 109.257 227.105 109.257C226.871 109.257 226.641 109.194 226.44 109.076C226.238 108.957 226.072 108.786 225.958 108.582L224.098 105.177C223.978 104.959 223.799 104.78 223.581 104.66L220.184 102.8C219.977 102.688 219.805 102.522 219.684 102.321C219.564 102.119 219.5 101.888 219.5 101.653C219.5 101.418 219.564 101.187 219.684 100.985C219.805 100.783 219.977 100.617 220.184 100.505L223.581 98.6533C223.801 98.5323 223.981 98.3499 224.098 98.1283L225.958 94.7314C226.07 94.5247 226.236 94.3521 226.438 94.2318C226.64 94.1115 226.87 94.048 227.105 94.048C227.34 94.048 227.571 94.1115 227.773 94.2318C227.975 94.3521 228.141 94.5247 228.253 94.7314L230.112 98.1283C230.23 98.3499 230.41 98.5323 230.63 98.6533Z" fill="#7D50FF"/>
<path d="M170.007 19.3304L171.904 20.3653C172.013 20.4325 172.103 20.5263 172.165 20.6379C172.227 20.7494 172.259 20.875 172.259 21.0027C172.259 21.1303 172.227 21.2559 172.165 21.3674C172.103 21.479 172.013 21.5728 171.904 21.6401L170.007 22.6824C169.888 22.7496 169.79 22.8481 169.722 22.9673L168.658 24.8646C168.59 24.9731 168.496 25.0626 168.385 25.1247C168.273 25.1868 168.148 25.2194 168.02 25.2194C167.892 25.2194 167.767 25.1868 167.655 25.1247C167.544 25.0626 167.45 24.9731 167.383 24.8646L166.408 22.9673C166.339 22.8471 166.237 22.7485 166.115 22.6824L164.158 21.6401C164.05 21.5728 163.96 21.479 163.898 21.3674C163.836 21.2559 163.803 21.1303 163.803 21.0027C163.803 20.875 163.836 20.7494 163.898 20.6379C163.96 20.5263 164.05 20.4325 164.158 20.3653L166.055 19.3304C166.178 19.2623 166.28 19.1609 166.348 19.038L167.383 17.1407C167.45 17.0322 167.544 16.9427 167.655 16.8806C167.767 16.8185 167.892 16.7859 168.02 16.7859C168.148 16.7859 168.273 16.8185 168.385 16.8806C168.496 16.9427 168.59 17.0322 168.658 17.1407L169.7 19.038C169.772 19.163 169.879 19.2646 170.007 19.3304Z" fill="#7D50FF"/>
<path d="M180.273 233.332H55.6049C51.38 233.33 47.3288 231.651 44.342 228.662C41.3552 225.674 39.6774 221.622 39.6774 217.397V136.912C39.6774 135.81 39.8947 134.718 40.3168 133.699C40.739 132.681 41.3578 131.755 42.1377 130.976C42.9177 130.197 43.8437 129.579 44.8626 129.158C45.8815 128.736 46.9735 128.52 48.0761 128.521H187.817C190.043 128.521 192.177 129.405 193.751 130.979C195.324 132.552 196.208 134.687 196.208 136.912V217.397C196.208 219.49 195.796 221.562 194.995 223.495C194.194 225.429 193.021 227.185 191.541 228.665C190.061 230.145 188.305 231.319 186.371 232.119C184.438 232.92 182.366 233.332 180.273 233.332Z" fill="#FF7F1E"/>
<mask id="mask2_1_2231" style="mask-type:luminance" maskUnits="userSpaceOnUse" x="39" y="128" width="158" height="106">
<path d="M180.269 233.332H55.601C51.3761 233.33 47.3249 231.65 44.3381 228.662C41.3513 225.674 39.6735 221.622 39.6735 217.397V136.912C39.6735 135.809 39.8908 134.718 40.3129 133.699C40.7351 132.68 41.3538 131.755 42.1338 130.976C42.9138 130.196 43.8398 129.578 44.8587 129.157C45.8776 128.736 46.9696 128.52 48.0722 128.521H187.813C190.039 128.521 192.173 129.405 193.747 130.978C195.32 132.552 196.204 134.686 196.204 136.912V217.397C196.204 219.49 195.792 221.562 194.991 223.495C194.191 225.428 193.017 227.185 191.537 228.665C190.057 230.144 188.301 231.318 186.367 232.119C184.434 232.92 182.362 233.332 180.269 233.332Z" fill="white"/>
</mask>
<g mask="url(#mask2_1_2231)">
<path d="M139.923 116.777H92.0582V239.743H139.923V116.777Z" fill="#FFB700"/>
</g>
<path d="M190.827 72.7798L33.249 97.5685C28.9615 98.243 26.0325 102.265 26.707 106.553L30.5945 131.265C31.269 135.553 35.2915 138.482 39.5791 137.807L197.157 113.019C201.444 112.344 204.373 108.322 203.699 104.034L199.811 79.3218C199.137 75.0343 195.114 72.1053 190.827 72.7798Z" fill="#FF7F1E"/>
<mask id="mask3_1_2231" style="mask-type:luminance" maskUnits="userSpaceOnUse" x="26" y="72" width="178" height="66">
<path d="M190.822 72.7793L33.244 97.5681C28.9564 98.2425 26.0274 102.265 26.7019 106.553L30.5894 131.265C31.2639 135.552 35.2864 138.481 39.574 137.807L197.152 113.018C201.439 112.344 204.368 108.321 203.694 104.034L199.806 79.3214C199.132 75.0338 195.109 72.1049 190.822 72.7793Z" fill="white"/>
</mask>
<g mask="url(#mask3_1_2231)">
<path d="M134.347 77.5485L84.3224 85.418L91.7187 132.435L141.743 124.566L134.347 77.5485Z" fill="#FFB700"/>
</g>
<path d="M67.5338 60.0396L68.5561 59.8788C75.9176 58.7207 83.4377 60.5345 89.462 64.921C95.4863 69.3076 99.5213 75.9076 100.679 83.2691L101.247 86.8767L58.2819 93.6356L55.5842 76.4866C54.9919 72.7216 55.9175 68.8754 58.1577 65.7919C60.398 62.7085 63.77 60.6397 67.5338 60.0396Z" fill="#FFB700"/>
<path d="M162.549 77.2187L119.584 83.9775L119.016 80.37C117.858 73.0084 119.672 65.4883 124.059 59.464C128.445 53.4397 135.045 49.4047 142.407 48.2467L143.429 48.0859C147.199 47.4928 151.051 48.4217 154.136 50.6682C157.221 52.9147 159.288 56.2949 159.881 60.0651L162.578 77.214L162.549 77.2187Z" fill="#FFB700"/>
<path d="M37.7955 95.2488L42.5872 97.8733C42.8765 98.0326 43.1177 98.2665 43.2857 98.5508C43.4536 98.835 43.5423 99.1592 43.5423 99.4894C43.5423 99.8195 43.4536 100.144 43.2857 100.428C43.1177 100.712 42.8765 100.946 42.5872 101.105L37.7955 103.737C37.4801 103.912 37.2202 104.172 37.0456 104.487L34.4285 109.249C34.2709 109.54 34.0376 109.784 33.7531 109.953C33.4687 110.123 33.1436 110.212 32.8125 110.212C32.4813 110.212 32.1563 110.123 31.8718 109.953C31.5874 109.784 31.354 109.54 31.1965 109.249L28.5719 104.457C28.4018 104.139 28.1408 103.878 27.822 103.707L23.0302 101.09C22.741 100.931 22.4998 100.697 22.3318 100.413C22.1638 100.129 22.0752 99.8045 22.0752 99.4744C22.0752 99.1442 22.1638 98.8201 22.3318 98.5358C22.4998 98.2516 22.741 98.0176 23.0302 97.8584L27.822 95.2338C28.143 95.0667 28.4049 94.8049 28.5719 94.4839L31.1965 89.6921C31.354 89.4008 31.5874 89.1575 31.8718 88.988C32.1563 88.8184 32.4813 88.7289 32.8125 88.7289C33.1436 88.7289 33.4687 88.8184 33.7531 88.988C34.0376 89.1575 34.2709 89.4008 34.4285 89.6921L37.0456 94.4839C37.2148 94.8071 37.4756 95.0732 37.7955 95.2488Z" fill="#7D50FF"/>
<path d="M23.7278 58.6016C18.4786 58.2416 13.9043 63.0484 15.2916 68.3126C15.5826 69.4932 16.1808 70.5759 17.0255 71.4506C17.8702 72.3254 18.9313 72.961 20.101 73.2931C21.2708 73.6251 22.5076 73.6417 23.6859 73.3412C24.8642 73.0407 25.942 72.4338 26.8099 71.5821C28.4296 69.9098 29.0595 67.0378 27.7022 65.0131C26.1125 62.5985 22.7755 62.5835 20.6458 64.2632C16.7089 67.3377 17.1813 73.6443 20.6008 76.9063C24.6052 80.7307 31.6316 79.3059 34.0987 74.4391C34.8486 72.9394 32.599 71.6196 31.8491 73.1193C31.2206 74.5871 30.0348 75.7451 28.5526 76.3385C27.0703 76.932 25.413 76.9123 23.9453 76.2839C22.4776 75.6554 21.3196 74.4696 20.7261 72.9874C20.1327 71.5051 20.1523 69.8478 20.7808 68.3801C21.3057 66.9628 22.618 65.4555 24.2827 65.703C25.9475 65.9504 26.0675 67.8027 25.4676 69.025C25.078 69.6833 24.5057 70.2144 23.8202 70.5538C23.1347 70.8932 22.3654 71.0264 21.6057 70.9372C20.8246 70.8823 20.0746 70.6093 19.4409 70.1493C18.8072 69.6893 18.3154 69.0607 18.0212 68.3351C16.409 64.4732 19.8734 60.9712 23.7128 61.2337C25.3926 61.3537 25.3851 58.7366 23.7128 58.6241L23.7278 58.6016Z" fill="#FF7F1E"/>
<path d="M59.0614 16.4658C57.0742 20.4027 58.3115 25.5844 62.1359 27.9315C64.037 29.0515 66.2881 29.4201 68.4471 28.965C70.6061 28.5099 72.5169 27.2639 73.8041 25.4719C74.4995 24.5023 74.9166 23.3611 75.0105 22.1716C75.1043 20.9821 74.8713 19.7896 74.3366 18.723C73.8303 17.8421 73.0846 17.123 72.1859 16.6492C71.2873 16.1753 70.2726 15.9661 69.2598 16.0459C68.1799 16.203 67.1866 16.7257 66.4456 17.5268C65.7046 18.3279 65.2607 19.3588 65.188 20.4477C64.9105 22.8848 66.3053 25.142 68.135 26.6417C70.2011 28.2906 72.7215 29.2689 75.359 29.4458C77.9964 29.6227 80.625 28.9897 82.8927 27.6316C84.325 26.7617 83.0127 24.4971 81.5729 25.3819C80.1614 26.2346 78.568 26.741 76.9231 26.8596C75.2783 26.9782 73.6287 26.7057 72.1094 26.0643C70.5851 25.4665 69.2778 24.4206 68.36 23.0648C67.6476 21.8875 67.3851 20.0652 68.5549 19.0829C69.5073 18.258 70.9396 18.7304 71.7195 19.5703C72.7543 20.7026 72.5368 22.4499 71.8394 23.7022C70.3397 26.3118 66.8902 27.2266 64.1981 26.0943C61.1011 24.797 59.8263 20.7401 61.3111 17.8081C62.0609 16.3083 59.8113 14.9885 59.0614 16.4883V16.4658Z" fill="#FFB700"/>
<path d="M203.692 77.6415C204.191 79.8207 205.493 81.7315 207.339 82.9924C209.185 84.2532 211.439 84.7712 213.65 84.443C218.105 83.6556 221.472 79.1413 220.707 74.6495C220.55 73.5205 220.093 72.4544 219.384 71.5626C218.674 70.6708 217.737 69.9861 216.672 69.5803C215.729 69.2798 214.722 69.2448 213.76 69.4789C212.799 69.713 211.92 70.2073 211.221 70.9075C210.507 71.7531 210.104 72.8171 210.078 73.9232C210.052 75.0294 210.405 76.1111 211.078 76.9891C212.578 79.1113 215.308 79.8762 217.827 79.7562C220.368 79.6037 222.808 78.7109 224.847 77.1877C226.885 75.6646 228.434 73.5778 229.3 71.185C229.878 69.6027 227.351 68.9354 226.781 70.4876C226.221 71.9657 225.33 73.2962 224.178 74.3775C223.025 75.4588 221.64 76.2623 220.129 76.7266C218.579 77.2429 216.911 77.2976 215.33 76.8841C213.913 76.4717 212.368 75.1594 212.728 73.5021C212.99 72.3248 214.355 71.8074 215.458 71.9649C216.89 72.1599 217.782 73.5096 218.105 74.8144C218.855 77.769 216.672 80.8135 213.868 81.7059C210.471 82.7557 206.939 80.3111 206.226 76.9441C205.882 75.3019 203.362 75.9993 203.714 77.6415H203.692Z" fill="#FF7F1E"/>
<path d="M141.376 3.59027C141.488 2.15799 143.903 2.56293 144.495 3.35781C145.995 5.3525 144.585 8.16457 143.453 9.94179C141.953 12.2589 140.333 14.4411 140.041 17.2607C139.794 19.6003 140.738 22.0599 143.041 23.0048C145.343 23.9496 147.907 23.1998 148.822 20.8526C149.43 19.2854 146.902 18.603 146.303 20.1627C146.078 20.7401 145.238 20.8376 144.713 20.7776C144.304 20.7413 143.915 20.5895 143.589 20.3398C143.264 20.0901 143.016 19.753 142.876 19.3678C141.893 16.8482 143.82 14.1861 145.125 12.1989C146.573 10.0168 147.945 7.62465 147.72 4.90257C147.532 2.65291 146.22 0.470752 143.82 0.09581C141.421 -0.279132 138.991 1.04816 138.796 3.59027C138.669 5.27001 141.278 5.25501 141.406 3.59027H141.376Z" fill="#FFB700"/>
<path d="M120.997 73.922C119.906 66.9915 113.406 62.2568 106.478 63.3468C99.5492 64.4367 94.8164 70.9385 95.9067 77.869L96.4019 81.0172C97.4922 87.9477 103.993 92.6824 110.921 91.5925C117.849 90.5026 122.582 84.0008 121.492 77.0703L120.997 73.922Z" fill="#FFCD00"/>
</svg>
