<svg width="25" height="25" viewBox="0 0 25 25" fill="none" xmlns="http://www.w3.org/2000/svg">
<g clip-path="url(#clip0_1_871)">
<path d="M12.6295 14.8837C12.1375 14.8837 11.7295 14.4757 11.7295 13.9837V7.98369C11.7295 7.49169 12.1375 7.08369 12.6295 7.08369C13.1215 7.08369 13.5295 7.49169 13.5295 7.98369V13.9837C13.5295 14.4757 13.1215 14.8837 12.6295 14.8837Z" fill="#6230F4"/>
<path d="M16.0974 2.52707H9.16142C8.68142 2.52707 8.29742 2.14307 8.29742 1.66307C8.29742 1.18307 8.68142 0.787071 9.16142 0.787071H16.0974C16.5774 0.787071 16.9614 1.17107 16.9614 1.65107C16.9614 2.13107 16.5774 2.52707 16.0974 2.52707Z" fill="#6230F4"/>
<path opacity="0.4" d="M16.2292 22.3546V18.8266C16.2292 17.3026 17.1412 16.3906 18.6652 16.3906H22.1932C22.4212 16.3906 22.6252 16.4146 22.8291 16.4626C22.9611 15.7906 23.0331 15.0946 23.0331 14.3866C23.0331 8.65064 18.3652 3.98265 12.6292 3.98265C6.89315 3.98265 2.22516 8.65064 2.22516 14.3866C2.22516 20.1226 6.89315 24.7906 12.6292 24.7906C14.0812 24.7906 15.4612 24.4906 16.7212 23.9506C16.4092 23.5426 16.2292 23.0146 16.2292 22.3546Z" fill="#6230F4"/>
<path d="M22.1938 16.3885H18.6659C17.1419 16.3885 16.2299 17.3005 16.2299 18.8245V22.3525C16.2299 23.8765 17.1419 24.7885 18.6659 24.7885H22.1938C23.7178 24.7885 24.6298 23.8765 24.6298 22.3525V18.8245C24.6298 17.3005 23.7178 16.3885 22.1938 16.3885ZM21.8579 21.7405L20.4419 22.5565C20.1539 22.7245 19.8659 22.8085 19.6019 22.8085C19.3979 22.8085 19.2179 22.7605 19.0499 22.6645C18.6659 22.4365 18.4499 21.9925 18.4499 21.4045V19.7725C18.4499 19.1845 18.6659 18.7405 19.0499 18.5125C19.4339 18.2845 19.9259 18.3325 20.4419 18.6205L21.8579 19.4365C22.3619 19.7365 22.6498 20.1445 22.6498 20.5885C22.6498 21.0325 22.3739 21.4405 21.8579 21.7405Z" fill="#6230F4"/>
</g>
<defs>
<clipPath id="clip0_1_871">
<rect width="24" height="24" fill="white" transform="translate(0.763123 0.785149)"/>
</clipPath>
</defs>
</svg>
