<svg width="25" height="25" viewBox="0 0 25 25" fill="none" xmlns="http://www.w3.org/2000/svg">
<path d="M15.4547 5.99674L16.8647 8.81674C17.0547 9.20674 17.5647 9.57674 17.9947 9.65674L20.5447 10.0767C22.1747 10.3467 22.5547 11.5267 21.3847 12.7067L19.3947 14.6967C19.0647 15.0267 18.8747 15.6767 18.9847 16.1467L19.5547 18.6067C20.0047 20.5467 18.9647 21.3067 17.2547 20.2867L14.8647 18.8667C14.4347 18.6067 13.7147 18.6067 13.2847 18.8667L10.8947 20.2867C9.18469 21.2967 8.14471 20.5467 8.59471 18.6067L9.16471 16.1467C9.27471 15.6867 9.08471 15.0367 8.75471 14.6967L6.76472 12.7067C5.59472 11.5367 5.97472 10.3567 7.60472 10.0767L10.1547 9.65674C10.5847 9.58674 11.0947 9.20674 11.2847 8.81674L12.6947 5.99674C13.4447 4.46674 14.6847 4.46674 15.4547 5.99674Z" fill="#C0ACFB"/>
<path d="M8.06442 6.53674H2.06442C1.65442 6.53674 1.31442 6.19674 1.31442 5.78674C1.31442 5.37674 1.65442 5.03674 2.06442 5.03674H8.06442C8.47442 5.03674 8.81442 5.37674 8.81442 5.78674C8.81442 6.19674 8.47442 6.53674 8.06442 6.53674Z" fill="#6230F4"/>
<path d="M5.06442 20.537H2.06442C1.65442 20.537 1.31442 20.197 1.31442 19.787C1.31442 19.377 1.65442 19.037 2.06442 19.037H5.06442C5.47442 19.037 5.81442 19.377 5.81442 19.787C5.81442 20.197 5.47442 20.537 5.06442 20.537Z" fill="#6230F4"/>
<path d="M3.06442 13.5367H2.06442C1.65442 13.5367 1.31442 13.1967 1.31442 12.7867C1.31442 12.3767 1.65442 12.0367 2.06442 12.0367H3.06442C3.47442 12.0367 3.81442 12.3767 3.81442 12.7867C3.81442 13.1967 3.47442 13.5367 3.06442 13.5367Z" fill="#6230F4"/>
</svg>
