<svg width="23" height="26" viewBox="0 0 23 26" fill="none" xmlns="http://www.w3.org/2000/svg">
<path d="M7.98942 0.860764C8.37111 0.498853 8.96323 0.503811 9.34493 0.865722C10.6955 2.14976 11.963 3.53296 13.1472 5.03018C13.6855 4.31627 14.2972 3.53792 14.9578 2.90333C15.3444 2.53646 15.9414 2.53646 16.328 2.90829C18.0212 4.54433 19.455 6.70588 20.4631 8.75836C21.4565 10.7811 22.1171 12.8485 22.1171 14.306C22.1171 20.632 17.2333 25.9764 11.1555 25.9764C5.00925 25.9764 0.194 20.6271 0.194 14.3011C0.194 12.3973 1.06505 10.0721 2.41567 7.77178C3.78097 5.43671 5.70903 3.00249 7.98942 0.860764ZM11.2387 21.217C12.4768 21.217 13.573 20.87 14.6055 20.1759C16.6657 18.7184 17.2186 15.8032 15.9806 13.5128C15.7604 13.0666 15.1976 13.0368 14.8795 13.4136L13.6464 14.8662C13.3234 15.243 12.741 15.2331 12.4376 14.8414C11.6302 13.8003 10.1866 11.9412 9.3645 10.8852C9.05621 10.4886 8.46898 10.4836 8.1558 10.8802C6.50178 12.9873 5.66988 14.3159 5.66988 15.8082C5.67477 19.2042 8.1509 21.217 11.2387 21.217Z" fill="#FF9600"/>
<path d="M11.2387 21.217C12.4768 21.217 13.573 20.87 14.6055 20.1759C16.6657 18.7184 17.2186 15.8032 15.9806 13.5128C15.7604 13.0666 15.1976 13.0368 14.8795 13.4136L13.6464 14.8662C13.3234 15.243 12.741 15.2331 12.4376 14.8414C11.6302 13.8003 10.1866 11.9412 9.3645 10.8852C9.05621 10.4886 8.46898 10.4836 8.1558 10.8802C6.50178 12.9873 5.66988 14.3159 5.66988 15.8082C5.67477 19.2042 8.1509 21.217 11.2387 21.217Z" fill="#FFC800"/>
<path d="M8.3251 1.98475C8.66661 1.65574 9.1964 1.66025 9.53792 1.98926C10.7464 3.15657 11.8804 4.41402 12.94 5.77513C13.4216 5.12612 13.9689 4.41852 14.56 3.84163C14.9059 3.50811 15.4401 3.50811 15.7859 3.84614C17.3009 5.33344 18.5838 7.29849 19.4857 9.16438C20.3745 11.0032 20.9656 12.8826 20.9656 14.2077C20.9656 19.9586 16.596 24.8172 11.1579 24.8172C5.65863 24.8172 1.35025 19.9541 1.35025 14.2032C1.35025 12.4725 2.12961 10.3587 3.33806 8.26749C4.55964 6.1447 6.28475 3.93177 8.3251 1.98475ZM11.2324 20.4904C12.3401 20.4904 13.3209 20.175 14.2447 19.544C16.0881 18.2189 16.5828 15.5688 15.4751 13.4866C15.2781 13.081 14.7745 13.0539 14.4899 13.3964L13.3866 14.717C13.0976 15.0595 12.5766 15.0505 12.3051 14.6945C11.5827 13.748 10.291 12.0579 9.55544 11.0979C9.27959 10.7373 8.75418 10.7328 8.47396 11.0934C6.99405 13.0088 6.24972 14.2167 6.24972 15.5733C6.2541 18.6606 8.46959 20.4904 11.2324 20.4904Z" fill="#FF9600"/>
<path d="M11.2324 20.4904C12.3401 20.4904 13.3209 20.175 14.2447 19.544C16.0881 18.2189 16.5828 15.5688 15.4751 13.4866C15.2781 13.081 14.7745 13.0539 14.4899 13.3964L13.3866 14.717C13.0976 15.0595 12.5766 15.0505 12.3051 14.6945C11.5827 13.748 10.291 12.0579 9.55544 11.0979C9.27959 10.7373 8.75418 10.7328 8.47396 11.0934C6.99405 13.0088 6.24972 14.2167 6.24972 15.5733C6.2541 18.6606 8.46959 20.4904 11.2324 20.4904Z" fill="#FFC800"/>
</svg>
