<svg width="31" height="31" viewBox="0 0 31 31" fill="none" xmlns="http://www.w3.org/2000/svg">
<g clip-path="url(#clip0_1_1461)">
<path d="M3.93656 8.33008H26.1345C26.3621 8.33008 26.5804 8.42051 26.7414 8.58147C26.9024 8.74243 26.9928 8.96075 26.9928 9.18839V25.4666C26.9928 26.1276 26.7302 26.7614 26.2629 27.2288C25.7955 27.6961 25.1616 27.9587 24.5007 27.9587H5.55849C4.89755 27.9587 4.26368 27.6961 3.79632 27.2288C3.32896 26.7614 3.06641 26.1276 3.06641 25.4666V9.18839C3.06641 8.96075 3.15684 8.74243 3.3178 8.58147C3.47877 8.42051 3.69709 8.33008 3.92473 8.33008H3.93656Z" fill="#7D50FF"/>
<path d="M18.2168 12.209H11.8633V27.9624H18.2168V12.209Z" fill="#B399FF"/>
<path d="M18.2168 12.209H11.8633V27.9624H18.2168V12.209Z" fill="#B399FF"/>
<path d="M4.59103 6.46302L4.98566 4.38137C5.0566 4.00119 5.22626 3.64633 5.47761 3.35239C5.72896 3.05845 6.05318 2.83576 6.41775 2.70664C6.78231 2.57752 7.17442 2.54652 7.55475 2.61675C7.93508 2.68697 8.29026 2.85595 8.58468 3.10674L10.1948 4.48792L14.6975 8.33353L9.10362 10.3067L3.51172 12.2798L4.59103 6.46302Z" fill="#FF9E00"/>
<path d="M4.59103 6.46302L4.98566 4.38137C5.0566 4.00119 5.22626 3.64633 5.47761 3.35239C5.72896 3.05845 6.05318 2.83576 6.41775 2.70664C6.78231 2.57752 7.17442 2.54652 7.55475 2.61675C7.93508 2.68697 8.29026 2.85595 8.58468 3.10674L10.1948 4.48792L14.6975 8.33353L9.10362 10.3067L3.51172 12.2798L4.59103 6.46302Z" fill="#7D50FF"/>
<path d="M25.8039 6.46302L25.4092 4.38137C25.3383 4.00119 25.1686 3.64633 24.9173 3.35239C24.6659 3.05845 24.3417 2.83576 23.9771 2.70664C23.6126 2.57752 23.2205 2.54652 22.8401 2.61675C22.4598 2.68697 22.1046 2.85595 21.8102 3.10674L20.2001 4.48792L15.6954 8.33353L21.2873 10.3067L26.8812 12.2798L25.8039 6.46302Z" fill="#FF9E00"/>
<path d="M25.8039 6.46302L25.4092 4.38137C25.3383 4.00119 25.1686 3.64633 24.9173 3.35239C24.6659 3.05845 24.3417 2.83576 23.9771 2.70664C23.6126 2.57752 23.2205 2.54652 22.8401 2.61675C22.4598 2.68697 22.1046 2.85595 21.8102 3.10674L20.2001 4.48792L15.6954 8.33353L21.2873 10.3067L26.8812 12.2798L25.8039 6.46302Z" fill="#7D50FF"/>
<path d="M25.7439 8.0957H4.35108C2.46366 8.0957 0.933594 9.6253 0.933594 11.5122C0.933594 13.399 2.46366 14.9286 4.35108 14.9286H25.7439C27.6314 14.9286 29.1614 13.399 29.1614 11.5122C29.1614 9.6253 27.6314 8.0957 25.7439 8.0957Z" fill="#B399FF"/>
<path d="M25.7439 8.0957H4.35108C2.46366 8.0957 0.933594 9.6253 0.933594 11.5122C0.933594 13.399 2.46366 14.9286 4.35108 14.9286H25.7439C27.6314 14.9286 29.1614 13.399 29.1614 11.5122C29.1614 9.6253 27.6314 8.0957 25.7439 8.0957Z" fill="#B399FF"/>
<path d="M18.2168 8.0957H11.8633V14.9286H18.2168V8.0957Z" fill="#FF9E00"/>
<path d="M18.2168 8.0957H11.8633V14.9286H18.2168V8.0957Z" fill="#7D50FF"/>
<path d="M14.7756 5.17969H15.3025C15.6851 5.17943 16.064 5.25457 16.4176 5.40081C16.7712 5.54705 17.0925 5.76153 17.3631 6.03199C17.6338 6.30245 17.8485 6.62359 17.9949 6.97706C18.1414 7.33053 18.2168 7.7094 18.2168 8.09201H11.8633C11.8633 7.70956 11.9386 7.33086 12.085 6.97752C12.2313 6.62418 12.4459 6.30312 12.7163 6.03269C12.9867 5.76225 13.3078 5.54773 13.6611 5.40138C14.0145 5.25502 14.3932 5.17969 14.7756 5.17969Z" fill="white"/>
<path d="M14.7756 5.17969H15.3025C15.6851 5.17943 16.064 5.25457 16.4176 5.40081C16.7712 5.54705 17.0925 5.76153 17.3631 6.03199C17.6338 6.30245 17.8485 6.62359 17.9949 6.97706C18.1414 7.33053 18.2168 7.7094 18.2168 8.09201H11.8633C11.8633 7.70956 11.9386 7.33086 12.085 6.97752C12.2313 6.62418 12.4459 6.30312 12.7163 6.03269C12.9867 5.76225 13.3078 5.54773 13.6611 5.40138C14.0145 5.25502 14.3932 5.17969 14.7756 5.17969Z" fill="#7D50FF"/>
</g>
<defs>
<clipPath id="clip0_1_1461">
<rect width="30" height="30" fill="white" transform="translate(0.0625 0.28125)"/>
</clipPath>
</defs>
</svg>
