<svg width="20" height="26" viewBox="0 0 20 26" fill="none" xmlns="http://www.w3.org/2000/svg">
<path d="M16.2287 2.80359C16.5301 2.12438 16.3053 1.33113 15.6874 0.894852C15.0694 0.458569 14.2268 0.498231 13.6497 0.984091L0.575572 12.0895C0.0648653 12.5258 -0.118989 13.2248 0.121043 13.8396C0.361075 14.4543 0.973924 14.8708 1.65316 14.8708H7.34755L3.42021 23.765C3.11889 24.4442 3.3436 25.2374 3.96156 25.6737C4.57952 26.11 5.42218 26.0703 5.99928 25.5845L19.0734 14.4791C19.5841 14.0428 19.7679 13.3438 19.5279 12.729C19.2879 12.1143 18.6801 11.7028 17.9958 11.7028H12.3014L16.2287 2.80359Z" fill="#FFC800"/>
</svg>
