<svg width="17" height="17" viewBox="0 0 17 17" fill="none" xmlns="http://www.w3.org/2000/svg">
<path d="M11.3971 4.95052V7.61719C11.3971 9.45812 9.90474 10.9505 8.0638 10.9505C6.22286 10.9505 4.73047 9.45812 4.73047 7.61719V4.95052C4.73047 3.10957 6.22286 1.61719 8.0638 1.61719C9.90474 1.61719 11.3971 3.10957 11.3971 4.95052Z" stroke="#333333"/>
<path d="M11.3906 4.95508H9.39062M11.3906 7.62174H9.39062" stroke="#333333" stroke-linecap="round"/>
<path d="M13.3971 7.61719C13.3971 10.5627 11.0093 12.9505 8.0638 12.9505M8.0638 12.9505C5.11828 12.9505 2.73047 10.5627 2.73047 7.61719M8.0638 12.9505V14.9505M8.0638 14.9505H10.0638M8.0638 14.9505H6.0638" stroke="#333333" stroke-linecap="round"/>
</svg>
